<svg xmlns="http://www.w3.org/2000/svg" width="72" height="72" viewBox="0 0 48 48" fill="none">
  <defs>
    <clipPath id="marjoram-loaf-72">
      <ellipse cx="24" cy="29.2" rx="16.6" ry="12.6"/>
    </clipPath>
  </defs>
  <ellipse cx="24" cy="29.2" rx="16.6" ry="12.6" fill="#8FA86A" stroke="#2B2A28" stroke-width="2" stroke-linejoin="round"/>
  <g clip-path="url(#marjoram-loaf-72)" fill="#3F5230">
    <ellipse cx="15.8" cy="24.6" rx="1.15" ry="0.32" transform="rotate(-50 15.8 24.6)"/>
    <ellipse cx="22.8" cy="23.0" rx="1.05" ry="0.28" transform="rotate(-12 22.8 23.0)"/>
    <ellipse cx="31.2" cy="24.4" rx="1.2" ry="0.3" transform="rotate(38 31.2 24.4)"/>
    <ellipse cx="18.2" cy="32.2" rx="1.1" ry="0.3" transform="rotate(62 18.2 32.2)"/>
    <ellipse cx="28.2" cy="33.0" rx="1.15" ry="0.32" transform="rotate(-44 28.2 33.0)"/>
    <ellipse cx="33.8" cy="29.6" rx="1.0" ry="0.26" transform="rotate(18 33.8 29.6)"/>
    <ellipse cx="21.4" cy="28.8" rx="0.9" ry="0.24" transform="rotate(-66 21.4 28.8)"/>
  </g>
  <path d="M11.6 21.4 C11.2 14.8 15.8 12.8 17.8 17.4" fill="#6F8A52" stroke="#2B2A28" stroke-width="2" stroke-linecap="round" stroke-linejoin="round"/>
  <path d="M36.4 21.4 C36.8 14.8 32.2 12.8 30.2 17.4" fill="#6F8A52" stroke="#2B2A28" stroke-width="2" stroke-linecap="round" stroke-linejoin="round"/>
  <ellipse cx="24" cy="33.8" rx="7" ry="4.6" fill="#D8D4A8"/>
  <circle cx="18" cy="27.2" r="1.6" fill="#2B2A28"/>
  <circle cx="28.4" cy="27.2" r="1.6" fill="#2B2A28"/>
  <circle cx="18.45" cy="26.7" r="0.4" fill="#F0E8C8"/>
  <circle cx="28.85" cy="26.7" r="0.4" fill="#F0E8C8"/>
  <path d="M39.2 34 C42.4 32.8 43.6 36.4 40.8 37.6" fill="none" stroke="#2B2A28" stroke-width="2.2" stroke-linecap="round"/>
</svg>
