<svg xmlns="http://www.w3.org/2000/svg" width="48" height="48" viewBox="0 0 48 48" fill="none">
  <defs>
    <clipPath id="mist-loaf-48">
      <ellipse cx="24" cy="28" rx="16" ry="12"/>
    </clipPath>
  </defs>
  <ellipse cx="24" cy="28" rx="16" ry="12" fill="#C4BDB4" stroke="#2B2A28" stroke-width="2" stroke-linejoin="round"/>
  <g clip-path="url(#mist-loaf-48)">
    <path d="M15 20 C16.4 26 16.4 31 15 37" stroke="#8F8880" stroke-width="2.2" stroke-linecap="round"/>
    <path d="M20 19 C21.5 26 21.5 32 20 38" stroke="#8F8880" stroke-width="2.2" stroke-linecap="round"/>
    <path d="M28 19 C29.5 26 29.5 32 28 38" stroke="#8F8880" stroke-width="2.2" stroke-linecap="round"/>
    <path d="M33 20 C34.4 26 34.4 31 33 37" stroke="#8F8880" stroke-width="2.2" stroke-linecap="round"/>
  </g>
  <path d="M12 20 C12 14 16 12 18 16" fill="#A69F97" stroke="#2B2A28" stroke-width="2" stroke-linecap="round" stroke-linejoin="round"/>
  <path d="M36 20 C36 14 32 12 30 16" fill="#A69F97" stroke="#2B2A28" stroke-width="2" stroke-linecap="round" stroke-linejoin="round"/>
  <ellipse cx="24" cy="32" rx="7" ry="6" fill="#DDD8D2"/>
  <circle cx="18" cy="26" r="1.6" fill="#2B2A28"/>
  <circle cx="28" cy="26" r="1.6" fill="#2B2A28"/>
  <path d="M38 32 C42 30 44 34 40 36" fill="none" stroke="#2B2A28" stroke-width="2" stroke-linecap="round"/>
</svg>
