<svg xmlns="http://www.w3.org/2000/svg" width="48" height="48" viewBox="0 0 48 48" fill="none">
  <defs>
    <clipPath id="parsley-loaf-48">
      <ellipse cx="24" cy="29.2" rx="16.6" ry="12.6"/>
    </clipPath>
  </defs>
  <ellipse cx="24" cy="29.2" rx="16.6" ry="12.6" fill="#6FA86A" stroke="#2B2A28" stroke-width="2" stroke-linejoin="round"/>
  <g clip-path="url(#parsley-loaf-48)" fill="#3F6B3C">
    <path d="M15.2 25.6 C17.0 23.8 19.8 24.0 20.4 25.8 C18.8 27.4 16.0 27.2 15.2 25.6Z"/>
    <path d="M26.4 24.2 C28.4 22.6 31.2 23.0 31.6 24.8 C29.8 26.4 27.0 26.0 26.4 24.2Z"/>
    <path d="M16.8 31.4 C18.6 29.8 21.2 30.2 21.6 32.0 C19.8 33.4 17.2 33.0 16.8 31.4Z"/>
    <path d="M27.2 32.0 C29.2 30.4 31.8 30.8 32.2 32.6 C30.4 34.0 27.8 33.6 27.2 32.0Z"/>
    <ellipse cx="22.4" cy="28.2" rx="1.2" ry="0.75"/>
    <ellipse cx="33.0" cy="28.6" rx="1.05" ry="0.7"/>
  </g>
  <path d="M11.6 21.4 C11.2 14.8 15.8 12.8 17.8 17.4" fill="#4A8F4E" stroke="#2B2A28" stroke-width="2" stroke-linecap="round" stroke-linejoin="round"/>
  <path d="M36.4 21.4 C36.8 14.8 32.2 12.8 30.2 17.4" fill="#4A8F4E" stroke="#2B2A28" stroke-width="2" stroke-linecap="round" stroke-linejoin="round"/>
  <ellipse cx="24" cy="33.8" rx="7" ry="4.6" fill="#C3E8BE"/>
  <circle cx="18" cy="27.2" r="1.6" fill="#2B2A28"/>
  <circle cx="28.4" cy="27.2" r="1.6" fill="#2B2A28"/>
  <circle cx="18.45" cy="26.7" r="0.4" fill="#E8F8E4"/>
  <circle cx="28.85" cy="26.7" r="0.4" fill="#E8F8E4"/>
  <path d="M39.2 34 C42.4 32.8 43.6 36.4 40.8 37.6" fill="none" stroke="#2B2A28" stroke-width="2.2" stroke-linecap="round"/>
</svg>
